<?xml version="1.0" encoding="utf-8"?>
<!-- Generator: Adobe Illustrator 21.1.0, SVG Export Plug-In . SVG Version: 6.00 Build 0)  -->
<svg version="1.1" id="Layer_2" xmlns="http://www.w3.org/2000/svg" xmlns:xlink="http://www.w3.org/1999/xlink" x="0px" y="0px"
	 viewBox="0 0 140 140" style="enable-background:new 0 0 140 140;" xml:space="preserve">
<style type="text/css">
	.st0{fill:#282C42;}
	.st1{fill:#FFFFFF;}
</style>
<g>
	<ellipse class="st0" cx="71.2" cy="72" rx="40.4" ry="41.5"/>
	<path class="st0" d="M112.8,66.7c0,11.1-5.2,21.1-13.5,28c-5.2,4.4-28.1-12.6-28.1-12.6s-26.2,15.3-32.1,8.8
		c-5.9-6.6-9.5-15-9.5-24.2c0-21,18.6-38,41.6-38S112.8,45.8,112.8,66.7z"/>
	<circle class="st1" cx="46.8" cy="63.6" r="6.4"/>
	<path class="st0" d="M46.8,38.1c0,0-8.7-9.2-13-9.2s-4.3,5.5-4.3,5.5V71L46.8,38.1z"/>
	<path class="st0" d="M95.7,38.1c0,0,8.7-9.2,13-9.2s4.3,5.5,4.3,5.5V71L95.7,38.1z"/>
	<ellipse class="st1" cx="70.9" cy="95.8" rx="7.5" ry="10.2"/>
	<circle class="st0" cx="36.2" cy="83.5" r="19.9"/>
	<circle class="st0" cx="61.2" cy="82.7" r="11.7"/>
	<circle class="st0" cx="80.1" cy="82.7" r="11.7"/>
	<path class="st1" d="M64.6,71.9c0-0.9,2.5-1.9,6.1-1.9s5.3,1,5.3,1.9s-5.1,4.5-5.7,4.5S64.6,72.8,64.6,71.9z"/>
	<ellipse transform="matrix(0.5 -0.866 0.866 0.5 -33.4101 76.3567)" class="st0" cx="49.4" cy="67.1" rx="3.4" ry="3.4"/>
	<circle class="st1" cx="93.6" cy="63.6" r="6.4"/>
	<ellipse transform="matrix(0.866 -0.5 0.5 0.866 -21.3827 54.51)" class="st0" cx="91" cy="67.2" rx="3.4" ry="3.4"/>
	<circle class="st0" cx="103.8" cy="83.5" r="19.9"/>
</g>
</svg>
